<svg width="512" height="512" xmlns="http://www.w3.org/2000/svg">

 <g>
  <title>background</title>
  <rect fill="none" id="canvas_background" height="402" width="582" y="-1" x="-1"/>
 </g>
 <g>
  <title>Layer 1</title>
  <path fill="none" stroke="#ffffff" stroke-width="10.199203" stroke-miterlimit="4" id="path2989" d="m507,256c0,138.62347 -112.37653,251 -251,251c-138.62347,0 -251,-112.37653 -251,-251c0,-138.62347 112.37653,-251 251,-251c138.62347,0 251,112.37653 251,251z"/>
  <path fill="#ffffff" id="path2989-2" d="m320.953289,206.741069l-44.24162,0l0,-29.01601c0,-10.89692 7.22213,-13.4374 12.30892,-13.4374c5.07517,0 31.22085,0 31.22085,0l0,-47.90477l-42.99733,-0.16782c-47.73122,0 -58.59341,35.72891 -58.59341,58.59334l0,31.93266l-27.60399,0l0,49.36309l27.60398,0c0,63.35027 0,139.68077 0,139.68077l58.06098,0c0,0 0,-77.08281 0,-139.68077l39.17799,0l5.06363,-49.36309z"/>
 </g>
</svg>