<svg width="512" height="512" xmlns="http://www.w3.org/2000/svg">

 <g>
  <title>background</title>
  <rect fill="none" id="canvas_background" height="402" width="582" y="-1" x="-1"/>
 </g>
 <g>
  <title>Layer 1</title>
  <path id="svg_1" fill="#ffffff" d="m254.5,16.5c-131.996,0 -239,107.004 -239,239s107.004,239 239,239s239,-107.004 239,-239s-107.004,-239 -239,-239zm158.392,397.392c-42.308,42.308 -98.559,65.608 -158.392,65.608c-59.833,0 -116.084,-23.3 -158.392,-65.608c-42.308,-42.308 -65.608,-98.559 -65.608,-158.392c0,-59.833 23.3,-116.084 65.608,-158.392c42.308,-42.308 98.559,-65.608 158.392,-65.608c59.833,0 116.084,23.3 158.392,65.608c42.308,42.308 65.608,98.559 65.608,158.392c0,59.833 -23.3,116.084 -65.608,158.392z"/>
  <path id="svg_2" fill-rule="evenodd" fill="#ffffff" d="m171.864,142.5l168.008,0c15.961,0 28.628,12.612 28.628,28.571l0,168.012c0,15.957 -12.666,29.418 -28.628,29.418l-168.008,0c-15.957,0 -29.364,-13.46 -29.364,-29.418l0,-168.012c0,-15.959 13.407,-28.571 29.364,-28.571l0,0zm135.644,25c-5.6,0 -10.008,4.25 -10.008,9.847l0,24.358c0,5.597 4.408,9.795 10.008,9.795l25.548,0c5.6,0 10.444,-4.198 10.444,-9.795l0,-24.358c0,-5.597 -4.844,-9.847 -10.444,-9.847l-25.548,0l0,0zm35.992,70l-20.053,0c1.879,6 2.896,12.728 2.896,19.469c0,37.596 -31.458,68.107 -70.259,68.107c-38.803,0 -70.257,-30.53 -70.257,-68.126c0,-6.741 1.015,-13.45 2.898,-19.45l-21.225,0l0,95.627c0,4.944 4.51,9.373 9.451,9.373l157.402,0c4.945,0 9.147,-4.429 9.147,-9.373l0,-95.627l0,0zm-87.416,-26.9c-25.071,0 -45.396,19.693 -45.396,43.987s20.325,43.987 45.396,43.987c25.073,0 45.396,-19.693 45.396,-43.987s-20.323,-43.987 -45.396,-43.987z" clip-rule="evenodd"/>
 </g>
</svg>